<svg width="363" height="728" viewBox="0 0 363 728" fill="none" xmlns="http://www.w3.org/2000/svg">
<g id="phone">
<path id="Vector" d="M363 172.947H359.001V63.4019C359.001 55.0758 357.361 46.8313 354.175 39.139C350.989 31.4467 346.319 24.4573 340.431 18.5699C334.544 12.6825 327.554 8.01237 319.862 4.82613C312.17 1.6399 303.925 -2.62641e-05 295.599 3.15481e-10H63.5127C55.1867 -1.9698e-05 46.9421 1.6399 39.2498 4.82614C31.5575 8.01238 24.5681 12.6825 18.6807 18.5699C12.7933 24.4574 8.12314 31.4467 4.93689 39.139C1.75064 46.8313 0.110709 55.0758 0.110718 63.4019V664.376C0.110707 672.702 1.75064 680.947 4.93689 688.639C8.12314 696.331 12.7933 703.321 18.6807 709.208C24.5681 715.096 31.5575 719.766 39.2498 722.952C46.9421 726.138 55.1867 727.778 63.5127 727.778H295.599C303.925 727.778 312.17 726.138 319.862 722.952C327.554 719.766 334.544 715.096 340.431 709.208C346.319 703.321 350.989 696.331 354.175 688.639C357.361 680.947 359.001 672.702 359.001 664.376V250.923H363V172.947Z" fill="#3F3D56"/>
<path id="Vector_2" d="M298.158 16.495H267.863C269.256 19.9106 269.788 23.6165 269.411 27.286C269.035 30.9556 267.762 34.4763 265.704 37.538C263.646 40.5997 260.867 43.1084 257.612 44.8431C254.356 46.5778 250.724 47.4852 247.035 47.4855H114.076C110.387 47.4852 106.755 46.5778 103.499 44.8431C100.244 43.1084 97.4649 40.5997 95.4073 37.538C93.3497 34.4763 92.0766 30.9556 91.7002 27.286C91.3238 23.6164 91.8556 19.9106 93.2488 16.4949H64.9532C58.7354 16.4949 52.5785 17.7196 46.834 20.099C41.0895 22.4785 35.8699 25.9661 31.4732 30.3627C27.0766 34.7594 23.589 39.979 21.2095 45.7235C18.83 51.468 17.6054 57.6249 17.6053 63.8427V663.935C17.6053 670.153 18.83 676.31 21.2095 682.054C23.589 687.799 27.0766 693.019 31.4732 697.415C35.8699 701.812 41.0895 705.299 46.834 707.679C52.5785 710.058 58.7354 711.283 64.9532 711.283H298.158C304.375 711.283 310.532 710.058 316.277 707.679C322.021 705.299 327.241 701.812 331.637 697.415C336.034 693.019 339.522 687.799 341.901 682.054C344.281 676.31 345.505 670.153 345.505 663.935V63.8427C345.505 57.6249 344.281 51.468 341.901 45.7235C339.522 39.979 336.034 34.7594 331.637 30.3628C327.241 25.9661 322.021 22.4785 316.277 20.0991C310.532 17.7196 304.375 16.495 298.158 16.495V16.495Z" fill="white"/>
</g>
</svg>
